<svg width="1190" height="987" viewBox="0 0 1190 987" fill="none" xmlns="http://www.w3.org/2000/svg">
<path opacity="0.34" d="M521.901 201.797L429.017 92.9179C364.073 16.7916 271.686 -17.6539 175.219 8.85638C80.3395 34.9302 -13.2871 162.598 1.56046 259.904L46.5053 554.455L73.9994 734.641C99.7981 903.715 262.603 1016.14 429.782 980.344L436.322 978.939L1069.9 837.122C1114.63 827.11 1149.39 791.91 1158.86 747.052L1186.64 615.334C1192.62 587.015 1190.59 557.592 1180.78 530.362L1172.68 507.854C1155.24 459.394 1108.18 428.032 1056.76 430.593L872.942 439.748C810.757 442.845 752.701 408.596 725.313 352.657L720.263 342.344C702.739 306.551 672.171 278.837 634.846 264.9L585.915 246.628C561.116 237.369 539.085 221.939 521.901 201.797Z" fill="#FFF4BD"/>
</svg>
